<svg xmlns="http://www.w3.org/2000/svg" viewBox="0 0 250 250"><path fill="#ffffff" d="M0 250h250V0H0v250z"/><path fill="#00AEEF" d="M126.417 64.843c5.684 0 8.729-2.514 10.581-5.383l-.103.437c-.536 2.69 1.703 4.338 3.81 4.338h1.827l5.081-28.898h-6.29l-.839 4.407c-1.136-2.276-4.34-5.007-9.522-5.007-9.148 0-14.57 7.535-15.478 15.563-1.04 9.178 4.887 14.543 10.933 14.543m5.451-25.395c10.542.585 7.11 20.73-3.606 20.135-9.692-.539-6.678-20.709 3.606-20.135m-86.725-6.064c0-6.536-4.199-9.579-11.57-9.579-4.532 0-11.669-.012-14.27-.012l-7.196 40.442c.89 0 8.67-.002 13.065-.005 2.984 0 5.828-.098 7.43-.433 7.33-1.549 10.305-6.88 10.895-10.79.818-5.414-2.6-8.993-6.482-9.86 2.915-.63 8.128-3.636 8.128-9.763M29.815 59.27c-.82.199-2.13.309-4.866.309h-4.755l2.403-13.56h7.051c9.305 0 8.457 11.193.167 13.251m2.766-18.437c-.897.296-2.09.38-4.26.38h-4.869l2.284-12.94h6.37c7.64 0 7.043 10.399.475 12.56m40.331-5.468h-1.879s-2.77 15.88-3.081 17.688c-.672 3.89-2.546 6.553-7.815 6.553-2.992 0-5.914-1.81-5.23-5.865a7221.28 7221.28 0 012.422-14.038c.554-3.12-2.104-4.338-4.297-4.338h-1.661c-.407 2.413-2.232 12.565-2.925 16.544-.284 1.6-.387 3.224-.265 4.277.623 5.39 5.358 8.68 11.216 8.68 10.11 0 13.912-5.282 15.123-11.561.396-2.068 2.312-12.546 2.462-13.602.438-3.12-2.134-4.338-4.07-4.338m10.405 40.275l2.932-15.94c1.14 2.275 4.39 5.166 9.574 5.166 9.33 0 15.104-7.281 15.682-15.81.617-9.064-4.709-14.282-10.885-14.282-5.355 0-9.008 2.607-10.867 5.319l.078-.39c.59-2.788-1.788-4.338-3.807-4.338h-1.999s-5.439 31.105-6.183 34.849c-.882 4.402 2.692 5.426 3.821 5.426h1.654zm15.209-35.684c9.689.541 6.676 20.767-3.611 20.196-10.537-.583-7.115-20.787 3.61-20.196m135.536 36.444c-2.7 0-6.374-.155-8.567-.902-2.587-.887-4.87-2.646-7.288-4.505-1.213-.929-2.465-1.899-3.82-2.795-1.648-1.095-3.02-1.608-4.328-1.608-1.764 0-3.48.958-5.567 3.11-2.82 2.902-7.315 9.493-9.11 12.19-.118.166-.27.353-.498.353-.44 0-.45-.576-.45-.765-.089-7.543-1.272-48.705-2.098-60.996-.365-5.436-2.053-8.812-4.407-8.812-1.891 0-4.726 2.516-6.5 9.608-4.514 18.05-14.145 58.184-18.285 78.57-.123.56-.755.555-.87 0-.463-2.086-.87-4.45-1.259-6.441-1.237-6.287-2.308-11.718-4.417-14.704-2.41-3.396-5.968-3.61-10.282-.75-.953.632-1.87 1.42-2.837 2.259-2.77 2.38-5.9 5.088-11.1 5.088H81.546l-1.247 6.737h53.487c5.468 0 10.54-3.148 13.57-5.321 1.536-1.102 2.6-1.742 3.452-1.742 1.173 0 1.7 1.193 2.136 2.987.216.879.478 2.094.774 3.498 1.015 4.655 2.536 11.992 4.466 16.87.904 2.27 2.237 3.525 3.763 3.525 2.338 0 4.724-2.764 6.069-7.041 1.803-5.7 12.619-52.559 17.18-72.185.19-.803.29-1.259.3-1.293.08-.346.31-.576.582-.576.238 0 .505.203.515.647l.005.076c.348 19.858 1.335 54.732 2.812 58.313.816 1.98 2.068 3.028 3.624 3.028 1.8 0 3.963-1.45 5.502-3.694.774-1.127 1.761-2.602 2.807-4.155 2.583-3.839 5.51-8.182 6.372-9.11 1.29-1.368 2.769-1.37 4.873.065.306.206.671.47 1.098.78 2.244 1.626 5.997 3.865 10.213 5.026 2.795.767 6.394.929 8.915.929 1.63 0 3.361-.066 3.866-.098l1.159-6.245c-.61.03-2.254.079-3.778.079"/></svg>