<svg xmlns="http://www.w3.org/2000/svg" viewBox="0 0 500 168.183"><path fill="#231F20" d="M15.747 67.625L20.572 37.1h.194l4.825 30.526h-9.844zm-2.654-44.7L0 94.01h11.814l2.165-15.754h13.387l2.165 15.754h11.821l-13.1-71.085H13.093zM57.981 38.48h.198l11.025 55.534h5.916L86.155 38.48h.18v55.534h10.642V22.929H80.923l-8.665 41.543h-.199L63.401 22.93H47.353v71.085h10.628V38.48zm76.587 25.103h-.202l-14.861-40.658h-11.326V94.01h11.024V49.611h.199l15.559 44.4h10.635V22.924h-11.028v40.658zm56.298 19.789h-21.861v-20.87h15.75V51.869h-15.75V33.549h20.49V22.922h-32.701v71.092h34.072V83.372zm16.331-43.811c0-4.435 2.165-6.997 6.104-6.997 2.76 0 6.005 1.782 6.5 7.886l11.62-1.279c-1.084-10.05-6.997-17.234-16.94-17.234-12.013 0-18.896 6.398-18.896 17.723 0 20.391 24.805 24.129 24.805 38.2 0 4.24-2.856 6.5-7.09 6.5-3.938 0-6.794-3.539-7.29-10.734l-11.62 1.669c.497 10.642 6.99 19.693 18.326 19.693 11.418 0 19.297-6.494 19.297-18.205-.004-19.293-24.816-25.103-24.816-37.222m38.812 54.453h12.215V33.556h11.818V22.93h-35.847v10.627h11.814v60.458zm47.502-44.017h-.187l-8.57-27.068h-12.416l14.776 41.543v29.542h12.214V64.472l14.766-41.543H301.69l-8.18 27.068zm-291.91 62.64h7.355v42.836H1.6v-42.836zm13.81 42.836v-42.836h6.822l8.96 24.5h.12v-24.5h6.645v42.836H31.55l-9.38-26.76h-.11v26.76h-6.65zm32.87-36.431h-7.124v-6.409h21.6v6.409h-7.118v36.435h-7.357v-36.435zm17.742 36.431v-42.836h19.7v6.405h-12.35v11.042h9.498v6.401h-9.498v12.58h13.179v6.408h-20.53zm32.63.004H91.3v-42.844h10.323c4.113 0 7.22.97 9.317 2.912 2.093 1.935 3.142 5.183 3.142 9.728 0 1.74-.145 3.227-.44 4.45a11.833 11.833 0 01-1.186 3.113c-.496.85-1.056 1.538-1.662 2.048a7.79 7.79 0 01-1.87 1.194l6.228 19.399h-7.471l-5.226-17.745c-.474.085-1.062.131-1.753.146a49.67 49.67 0 01-2.048.035v17.564zm.117-23.618h2.61c.986 0 1.829-.1 2.523-.294a3.369 3.369 0 001.69-1.07c.432-.517.755-1.194.95-2.048.194-.853.3-1.913.3-3.177 0-2.53-.418-4.259-1.25-5.19-.833-.932-2.235-1.396-4.212-1.396H98.77v13.175zm21.128 23.614v-42.836h6.823l8.959 24.5h.117v-24.5h6.65v42.836h-6.413l-9.377-26.76h-.113v26.76h-6.646zm33.757 0h-7.124l7.893-42.836h9.14l7.892 42.836h-7.124l-1.307-9.49h-8.063l-1.307 9.49zm2.377-15.902h5.93l-2.905-18.393h-.12l-2.905 18.393zm22.01-20.53h-7.12v-6.408h21.598v6.409h-7.117v36.435h-7.361v-36.435zm18.453-6.404h7.354v42.836h-7.354v-42.836zm13.235 10.383c0-1.502.223-2.926.677-4.272.453-1.34 1.144-2.515 2.08-3.5.927-.992 2.093-1.768 3.5-2.345 1.402-.574 3.07-.858 5.012-.858 1.941 0 3.61.287 5.013.858 1.402.58 2.568 1.353 3.5 2.345.928.985 1.619 2.157 2.072 3.5.453 1.346.684 2.774.684 4.272v22.074c0 1.502-.23 2.926-.684 4.265a9.502 9.502 0 01-2.072 3.507c-.929.985-2.094 1.768-3.5 2.338-1.407.57-3.072.865-5.013.865-1.941 0-3.61-.294-5.013-.865-1.403-.57-2.568-1.353-3.5-2.338a9.395 9.395 0 01-2.08-3.507 13.235 13.235 0 01-.676-4.265V123.02zm7.354 21.893c0 1.626.28 2.82.833 3.589.56.776 1.583 1.158 3.085 1.158s2.53-.383 3.086-1.158c.553-.77.832-1.963.832-3.589v-21.712c0-1.626-.28-2.82-.832-3.589-.56-.776-1.584-1.158-3.086-1.158-1.502 0-2.529.382-3.085 1.158-.553.769-.833 1.963-.833 3.589v21.712zm20.802 10.56v-42.836h6.823l8.96 24.5h.12v-24.5h6.65v42.836h-6.413l-9.377-26.76h-.113v26.76h-6.65zm33.194 0h-7.124l7.893-42.836h9.14l7.892 42.836h-7.124l-1.307-9.49h-8.066l-1.304 9.49zm2.373-15.902h5.93l-2.904-18.393h-.12l-2.906 18.393zm18.581 15.902v-42.836h7.362v36.428h11.563v6.408h-18.925zM478.49 103.777c-.805-.35-.907-2.87-1.368-2.87-.698 0-1.056 2.292-2.409 2.633-1.396.237-3.457-1.488-4.042-1.042-.58.475 1.3 3.737-1.803 3.737-.928 0-1.403-1.055-1.403-1.856V79.316s.106-.036 1.495.308c.914.237 1.835.69 1.835 1.962 0 .677-.244 2.062.223 2.3.482.237.805-.238 1.042-.351 4.247-3.1 5.285 2.409 6.203 2.409.811 0 .698-3.784 1.842-3.784.928-.358 9.777 3.904 9.777 6.67 0 .575-1.158.677-1.257 1.266-.114.81 2.069 1.144 1.718 2.646-.124.928-2.186 2.072-1.619 2.639.595.581 3.351-.567 3.582-.567.573 0 .676.907.676 1.258 0 5.066-11.835 8.863-14.492 7.705m-31.508 4.01c-.69-1.13-.35-3.093-1.034-3.093-.344 0-2.179 2.767-3.228 2.767-1.027 0-2.752-1.962-3.443-1.962-.46 0 .46 2.766-.46 3.903-.581.812-6.097 1.403-6.097.705v-39.11c0-1.834 1.388-2.529 2.639-2.529l20.586-.007c2.522 0 3.56.797 3.56 3.444l.021 35.1c.004 1.143-12.09 1.604-12.544.782m12.54 49.575c0 2.423-.818 2.99-2.876 2.536l-21.964-4.371c-1.271-.224-1.962-1.035-1.962-2.41v-39.793c0-1.034 3.567-1.151 4.141-.69 1.042.92.69 4.254 1.375 4.254.928 0 3.337-4.028 4.378-4.028 2.186 0 3.674 1.265 4.134 1.042.468-.238.468-2.073 1.035-2.537.804-.56 3.22-.56 4.485-.698 1.96-.126 3.917-.277 5.873-.453 1.495 0 1.382 1.048 1.382 3.234v43.914zM435.83 41.902c0-15.874 23.466-24.957 25.07-33.009 1.726 1.612 1.956 4.255 1.956 6.557 0 9.657-16.788 25.875-16.788 37.605 0 1.271.113 1.604.113 2.416 0 1.144-.46 1.381-.683 1.381-2.778.004-9.668-5.41-9.668-14.95m-12.998 99.252c-1.835 0-2.99-3.687-3.45-3.56-.574.12.124 3.1-.574 3.56-.574.567-12.767-5.062-13.688-5.969-.812-.811.35-1.955 0-2.767-.23-.69-2.08-.467-2.64-.818-.467-.453.56-2.536-.113-2.983-.595-.35-1.842 2.073-2.653.907-.358-.46-.454-1.257-.454-2.292 0-7.018 7.464-9.887 12.534-11.612 2.062-.698 1.36 1.948 2.062 2.069.804.23.92-1.265 1.842-1.265.698 0 3.344 1.265 3.91.804.461-.344-1.374-2.069-.803-2.76.697-.574 6.033-1.58 5.983-.209l.014 24.575c.007 2.58-1.97 2.32-1.97 2.32m72.23-42.326c1.264-2.179 1.264-4.825 1.725-5.867.677-1.144 3.213-.92 3.213-1.725 0-.336-1.835-.797-2.536-1.257-1.36-.805-.9-4.946-1.591-4.946-1.049 0-2.08 2.87-3.121 1.612-1.828-2.306-9.427-6.678-12.87-7.939-1.272-.46.92-4.254.35-4.609-.58-.343-2.072 2.314-4.258 1.85-1.725-.351-.92-3.458-1.842-3.458-.46 0-2.193 4.372-3.457 4.02-1.382-.343-3.206-.839-3.206-.839V64.21c0-1.955-1.315-3.472-3.004-3.457H452.04c-3.45 0-3.22-2.53-3.22-3.107 0-15.293 22.2-17.823 22.2-37.831 0-8.743-5.515-14.61-11.955-19.792-.358-.224 0 1.271 0 1.842 0 9.317-34.625 14.149-34.625 35.655 0 18.737 18.637 19.541 18.637 22.425 0 .574-1.144.804-1.265.804h-14.258c-1.495 0-2.795.921-2.774 3.43l.014 11.523c-1.389.46-3.22-1.612-4.148-1.612-.46 0-.223 3.568-1.035 4.035-.69.337-13.681 4.939-14.847 5.056-1.824.343-1.36-2.877-2.394-2.877-.936 0-.936 3.22-3.235 3.22-1.374 0-2.522-1.272-3.553-1.272-.69 0 1.488 2.654 1.488 3.45 0 2.194-4.248 2.99-4.248 4.493 0 .804 4.018-.344 4.595-.344 2.069 0 1.842 2.423 2.632 2.423.812 0 1.382-2.78 2.08-3.227 1.367-.804 2.99.574 3.68.574 1.145 0-.92-2.767.12-3.227 0 0 14.015-5.97 14.947-5.516.804.467.698 1.842 1.612 2.306.914.454 2.306-3.22 2.306-.928v28.185c-1.619 1.02-5.07 1.611-6.915 1.611-.907 0-.46-2.997-1.034-2.997-.922 0-1.843 2.53-3.22 2.53-1.265 0-3.1-3.1-4.358-3.1-.804 0 1.48 3.904.106 4.595-5.3 2.653-13.688 5.182-13.688 13.56 0 1.74.928 3.82.567 4.372-.33.818-2.165 2.423-2.062 3.114 0 .69 3.45.454 4.148 1.502.337.56.574 3.093 1.272 3.093.56 0 2.055-1.949 3.33-1.265 4.014 2.423 11.028 5.055 14.259 6.802.79.46.336 2.983.79 3.213.928.46 2.76-2.416 5.65-.811.581.237 1.152 1.158 1.152 2.192l-.015 9.406c0 1.725.797 2.179 1.726 2.409l34.288 6.823s3.047.684 4.077.684c1.194.05 2.675-.008 2.59-2.891l-.014-21.376c0-.216.273-.74.733-.74 2.012-.007 1 5.795 1.453 5.795.914 0 1.495-3.91 2.653-3.91 1.605 0 2.653 1.494 3.323 1.15.58-.343-.33-2.192-.33-3.344 0-1.027 2.976-1.487 6.664-2.869 3.22-1.137 5.866-2.409 6.908-2.409.797 0 1.36 2.179 2.069 2.179.574 0 .684-2.863 1.955-2.863 1.028 0 3.323 1.598 3.911 1.138.454-.337-1.151-2.53.107-3.458.928-.574 3.106-1.941 3.106-2.522 0-.344-4.254-.468-4.484-.468-.805-.223-1.726-2.753-2.314-2.753-.662 0-.662 2.53-1.71 3.33-.929.684-3.221-2.416-4.248-2.416-.588 0 .676 2.307.676 4.156 0 1.828-11.145 5.399-12.64 5.399-2.306 0-2.423-2.877-2.883-2.877-.691 0-.67 3.514-3.213 3.514a1.612 1.612 0 01-1.725-1.633v-27.614c0-.79.23-1.863 1.725-1.927 1.891-.085 1.941 4.198 2.632 4.198 1.265 0 1.962-4.255 4.371-4.255 1.842 0 3.337 2.537 4.492 2.537.804 0-1.374-2.647-1.374-3.918.007-1.25 11.39-.79 15.76-8.499"/></svg>