<?xml version="1.0" encoding="utf-8"?>
<!-- Generator: Adobe Illustrator 24.0.2, SVG Export Plug-In . SVG Version: 6.00 Build 0)  -->
<svg version="1.1" id="Layer_1" xmlns="http://www.w3.org/2000/svg" xmlns:xlink="http://www.w3.org/1999/xlink" x="0px" y="0px"
	 viewBox="0 0 250 39.7" style="enable-background:new 0 0 250 39.7;" xml:space="preserve">
<style type="text/css">
	.st0{fill-rule:evenodd;clip-rule:evenodd;fill:#0E78BE;}
	.st1{fill-rule:evenodd;clip-rule:evenodd;fill:#DE076E;}
</style>
<title>Logo/Dark</title>
<desc>Created with Sketch.</desc>
<g id="Symbols">
	<g id="Navigation_x2F_Top" transform="translate(-70.000000, -18.000000)">
		<g id="Icon_x2F_Logo_x2F_Colour" transform="translate(70.000000, 18.000000)">
			<path id="logo_dark" class="st0" d="M156.7,18.1c0,0.9-0.1,1.8-0.3,2.7l-4,18.3h-7.6l3.5-16.4c0.2-0.9,0.3-1.7,0.3-2.3
				c0-1.6-0.7-2.3-2.1-2.3c-4,0-9.5,8.1-10.8,14.3l-1.4,6.8h-7.6l8-36.9l8-2.1l-3.9,18.1c2.8-3.4,6.6-6.1,11-6.1
				C154.5,12.1,156.7,14.4,156.7,18.1z M124.1,39.7h-8.3l-1.6-9.3l7.3-5.2L124.1,39.7z M37.1,4l-1.8,6.8c-3.2-1.2-6.7-1.9-10-1.9
				C14.8,8.8,8.6,16.3,8.6,25c0,4.4,2.2,8.4,9.5,8.4c2.1,0,4.1-0.2,5.7-0.7l2.1-9.6l8.3-2.1l-3.5,16.6c-4.2,1.4-9.5,2.1-13.9,2.1
				C4.9,39.6,0,34,0,25.9C0,12.5,10.6,2.5,25.9,2.5C30,2.5,33.7,3.1,37.1,4z M250,0l-6.4,29.5c-0.7,2.9-1.5,7.1-2,9.6h-7.5
				c0.9-2,2.1-4.8,3.7-8.5h-0.2c-2.4,3.9-7.4,9.1-13.4,9.1c-4.6,0-7.1-2.6-7.1-8.3c0-10.1,6.2-19.4,19.4-19.4c1,0,1.9,0.1,3.3,0.2
				l2.2-10L250,0z M238.6,17.7c-1-0.2-2-0.4-3.4-0.4c-7,0-10.2,7.2-10.2,12.7c0,2.6,0.8,3.7,2.3,3.7c4.3,0,9.7-8.7,10.9-14.3
				L238.6,17.7z M216.4,12.8l-3.6,16.7c-0.6,2.9-1.5,7.1-2,9.6h-7.5c1-2.1,2.1-4.8,3.7-8.5h-0.2c-2.4,3.9-7.4,9.1-13.4,9.1
				c-4.6,0-7.1-2.6-7.1-8.3c0-10.1,6.2-19.4,19.4-19.4C209.3,12,212.9,12.2,216.4,12.8z M207.7,17.7c-1-0.2-2-0.4-3.4-0.4
				c-7,0-10.2,7.2-10.2,12.7c0,2.6,0.8,3.7,2.3,3.7c4.3,0,9.7-8.7,10.9-14.3L207.7,17.7z M176.4,12c6.8,0,9.2,3.3,9.2,6.5
				c0,6.3-7.2,9.5-19,9.8c0,0.6-0.2,1.5-0.2,2.1c0,3,1.9,3.8,5.6,3.8c2.7,0,5.9-0.9,8.6-2.1v5.2c-2.9,1.1-7.4,2.3-11.1,2.3
				c-7.1,0-10.6-3.1-10.6-9C158.8,19.5,166.4,12,176.4,12z M178,19.3c0-1.5-1.1-2.5-3.1-2.5c-4,0-6.3,2.9-7.5,6.8
				C174.4,23.5,178,22.2,178,19.3z M120.6,24.3l-21.7,7L94.2,39h-8.1L108,3h8.7L120.6,24.3z M112.4,24.3l-1.3-7.6
				c-0.3-1.8-0.5-3.8-0.6-5.8h-0.1c-0.9,1.9-2,4-3.2,6.1l-4.3,7.3H112.4z M66.8,22.4c0,9.7-7.4,17.2-17.2,17.2
				c-7.3,0-12.5-3-12.5-10.6c0-9.5,7.3-17,17.1-17C62.9,12,66.8,15.6,66.8,22.4z M58.9,22.9c0-3.4-1.6-5.2-4.9-5.2
				c-6,0-9,6.2-9,11.5c0,2.9,1.6,4.8,5.1,4.8C55.7,33.9,58.9,28.2,58.9,22.9z"/>
			<path id="Fill-154" class="st1" d="M91.3,24.3H71.2c-0.2,2.6-1,5-1.9,7.1"/>
		</g>
	</g>
</g>
</svg>
