<svg xmlns="http://www.w3.org/2000/svg" viewBox="0 0 500 110.696"><path fill="#ffffff" d="M105.086 0h56.844c2.608.538 5.275.883 7.815 1.648 9.464 2.85 15.99 9.31 20.954 17.554 7.585 12.6 9.802 26.45 9.274 40.886-.44 12.077-3.17 23.51-9.939 33.737-5.32 8.037-12.344 13.743-21.896 15.983-1.318.31-2.643.593-3.965.888h-59.087c.02-.622.06-1.243.06-1.865.003-35.594.003-71.189 0-106.783 0-.683-.04-1.365-.06-2.048zM129.6 86.763c.445.069.687.138.93.139 8.346.003 16.692.01 25.039-.008 3.764-.008 7.006-1.46 9.413-4.255 1.846-2.143 3.555-4.53 4.76-7.075 4.466-9.428 4.942-19.447 3.658-29.604-.75-5.93-2.563-11.536-6.24-16.382-3.096-4.08-7.159-6.215-12.354-6.183-7.786.049-15.572.01-23.358.018-.595 0-1.19.077-1.848.122v63.228zM95.363 110.696H36.275c-.349-.112-.69-.278-1.048-.328-8.43-1.166-15.409-5.03-21.016-11.38C7.363 91.231 3.416 82.077 1.53 72 .85 68.352.502 64.641 0 60.957v-9.349c.123-.786.298-1.569.36-2.36.911-11.745 4.052-22.756 10.746-32.588C16.526 8.697 23.578 2.989 33.198.919 34.956.54 36.745.303 38.52 0h56.47c.063.364.18.728.18 1.092.01 7.041.008 14.083-.004 21.124 0 .35-.113.699-.198 1.191H92.67c-15.578 0-31.157-.008-46.736.014-1.363.002-2.755.055-4.083.33-5.106 1.056-8.363 4.479-10.75 8.832-4.635 8.455-5.44 17.622-4.726 27.017.549 7.235 2.304 14.12 6.403 20.24 3.173 4.737 7.467 7.17 13.342 7.12 15.577-.134 31.157-.045 46.735-.045h2.32c0 6.195-.015 12.103.009 18.01.008 1.924.116 3.847.179 5.77zM232.236 0c.046.68.13 1.36.133 2.039.056 21.002.09 42.003.175 63.005.008 1.86.236 3.733.535 5.573 1.338 8.233 6.536 12.993 14.292 14.935 3.64.911 7.508 1.19 11.28 1.243 11.215.158 22.435.062 33.652.065h2.387v23.836H246.82c-1.903-.252-3.81-.476-5.71-.759-15.418-2.29-25.94-10.777-31.41-25.306-2.67-7.09-2.74-14.639-2.755-22.115-.044-20.235-.018-40.47-.005-60.706 0-.603.156-1.207.24-1.81h25.055z"/><path fill="#ffffff" d="M310.77 39.633c.611-3.542.908-7.173 1.886-10.61C317.373 12.433 332.83.832 350.041.767c6.725-.026 13.45-.004 20.314-.004V24.17c-.618.03-1.273.086-1.929.087-5.857.007-11.715-.015-17.572.008-9.486.038-16.377 6.912-16.41 16.415-.035 10.158-.038 20.316 0 30.474.037 9.476 6.97 16.343 16.457 16.348 20.937.01 41.874.011 62.81 0 9.508-.006 16.37-6.879 16.38-16.378.011-10.158.012-20.316 0-30.474-.01-9.492-6.872-16.353-16.389-16.386-5.795-.02-11.59-.003-17.385-.003h-2.096V1.018c.2-.103.307-.206.413-.205 8.156.084 16.36-.353 24.459.377 17.415 1.569 32.126 16.392 34.13 33.753.328 2.836.373 5.716.388 8.576.047 9.036.006 18.072.02 27.109.016 9.101 6.994 16.11 16.086 16.13 10.094.023 20.189.003 30.283 0v23.563c-10.216-.018-20.431-.043-30.647-.052-4.594-.004-9.033-.839-13.346-2.399-5.163-1.867-9.692-4.77-13.745-8.544-.586.526-1.094.976-1.596 1.433-4.4 4.003-9.442 6.88-15.131 8.608-1.593.484-3.21.888-4.817 1.328h-76.664c-.348-.123-.687-.284-1.044-.365-15.877-3.59-26.191-13.17-30.71-28.805-.87-3.014-1.038-6.23-1.53-9.353V39.633z"/></svg>