<svg xmlns="http://www.w3.org/2000/svg" viewBox="0 0 500 91.931"><path fill="#ffffff" d="M196.934 73.044h5.735c8.308 0 16.616.012 24.924-.007 2.472-.005 4.948-.212 7.413-.107 1.873.08 3.787.315 5.584.825 3.076.872 4.296 3.04 4.26 6.236-.04 3.562-1.423 6.443-3.874 8.899-1.378 1.38-3.178 1.896-5.016 2.3-4.277.938-8.623.714-12.95.724-12.462.028-24.924.015-37.386.004-2.978-.003-5.904-.333-8.626-1.678-2.96-1.462-4.26-3.984-4.451-7.138-.17-2.779.58-5.456 1.114-8.15 1.4-7.047 2.818-14.09 4.228-21.135 1.06-5.305 2.12-10.61 3.178-15.917 1.538-7.722 3.076-15.443 4.607-23.167.487-2.456 1.131-4.855 2.386-7.052 1.875-3.284 4.678-5.354 8.375-6.054 1.931-.365 3.93-.524 5.899-.528 17.403-.04 34.807-.023 52.211-.022h1.342c-.311 1.68-.507 3.237-.899 4.743-.728 2.797-1.412 5.622-2.407 8.327-1.135 3.086-3.643 4.852-6.781 5.529-1.888.407-3.867.53-5.807.541-9.105.053-18.21.02-27.316.027-1.459.001-2.856.238-4.024 1.222-1.05.883-1.726 2.045-2.062 3.317-.818 3.098-1.509 6.23-2.239 9.351-.222.948-.387 1.91-.615 2.856-.123.512.054.699.549.68.259-.008.519.002.778.002 9.163 0 18.326-.028 27.489.025 2.023.011 3.997.457 5.621 1.83 1.557 1.314 2.01 3.003 1.864 4.989-.142 1.91-.515 3.74-1.275 5.495-1.11 2.567-2.999 4.197-5.8 4.558-1.789.23-3.603.342-5.406.352-6.973.039-13.946.015-20.92.016-3.956 0-6.204 1.664-7.134 5.505-.935 3.866-1.722 7.768-2.563 11.657-.053.245-.006.512-.006.945zM55.872 71.74c-.39.446-.77.903-1.173 1.338-3.858 4.154-8.615 6.614-14.22 7.403-1.869.264-3.766.523-5.645.492-6.205-.102-12.222-1.182-17.797-4.055-5.612-2.891-9.997-7.071-13.001-12.649A31.978 31.978 0 01.328 52.015c-.184-1.937-.373-3.891-.319-5.83a45.994 45.994 0 013.586-16.62 48.382 48.382 0 019.694-14.814 47.382 47.382 0 0112.137-9.223C30.37 2.898 35.603 1.182 41.168.559c2.446-.274 4.914-.484 7.374-.496C59.894.012 71.246.041 82.598.041c1.438 0 1.482.008 1.238 1.447-.618 3.647-1.42 7.248-2.698 10.734-1.4 3.82-4.316 5.684-8.152 6.263-1.807.272-3.657.344-5.488.355-6.54.04-13.08.035-19.621.011-6.959-.024-12.683 2.689-17.218 7.86-3.703 4.222-5.882 9.183-6.666 14.76-.472 3.361-.476 6.678.536 9.95 1.351 4.37 4.043 7.666 8.02 9.914 3.213 1.815 6.712 2.497 10.358 2.365 4.49-.163 8.368-1.824 11.515-5.07 1.368-1.411 2.995-4.635 3.225-6.385-.332-.024-.659-.067-.986-.067-2.91-.006-5.825.1-8.728-.046a13.732 13.732 0 01-4.408-.961c-2.217-.902-3.404-2.664-3.258-5.153.146-2.493.719-4.885 1.958-7.064 1.342-2.36 3.569-3.428 6.158-3.496 5.869-.155 11.742-.152 17.614-.197 2.65-.02 5.302-.044 7.952.011 1.738.037 3.473.314 4.869 1.45 1.828 1.487 2.368 3.652 1.988 5.768-1.192 6.645-2.608 13.251-3.973 19.865-1.1 5.327-2.257 10.642-3.377 15.964-.124.592-.378.905-1.021 1.07-2.596.668-5.212 1.177-7.901 1.084-1.789-.062-3.53-.39-5.128-1.288-2.291-1.285-3-3.424-3.224-5.832-.047-.501-.007-1.01-.007-1.514l-.303-.1zM127.549 81.024c-6.831-.113-13.397-1.288-19.528-4.348-5.829-2.908-10.41-7.18-13.63-12.87-2.26-3.997-3.715-8.261-4.148-12.83-.23-2.422-.437-4.875-.314-7.296.318-6.286 1.67-12.358 4.277-18.126 1.954-4.324 4.524-8.223 7.694-11.759 3.101-3.458 6.71-6.233 10.759-8.487 4.758-2.65 9.88-4.207 15.241-4.86a56.9 56.9 0 019.463-.358c5.573.258 10.974 1.474 16.009 3.969 4.683 2.321 8.6 5.566 11.625 9.868 3.22 4.579 5.11 9.654 5.816 15.179.235 1.843.52 3.707.473 5.553-.13 5.047-.705 10.04-2.161 14.914-1.45 4.851-3.532 9.39-6.418 13.545-3.622 5.214-8.178 9.42-13.754 12.51a39.764 39.764 0 01-14.134 4.685c-2.412.322-4.846.48-7.27.71zm.654-20.745c2.006.18 4.077-.26 6.077-1.028 5.025-1.929 8.505-5.538 10.931-10.23 1.625-3.14 2.473-6.498 2.803-10.026.3-3.222.116-6.36-1.051-9.386-1.44-3.733-3.948-6.486-7.697-8.026-2.718-1.115-5.534-1.373-8.441-1.014-3.534.436-6.636 1.861-9.302 4.144-3.893 3.335-6.342 7.597-7.544 12.56-.932 3.85-1.287 7.734-.394 11.651.686 3.01 2.026 5.7 4.337 7.763 2.856 2.548 6.256 3.78 10.28 3.592zM455.526 80.976c-5.044-.043-9.962-.765-14.735-2.384-5.265-1.786-9.869-4.632-13.611-8.76-2.744-3.026-4.794-6.498-6.206-10.339-1.356-3.685-2.088-7.478-2.259-11.408-.341-7.838 1.085-15.317 4.231-22.496a42.81 42.81 0 0111.042-15.113c6.002-5.28 13.03-8.475 20.937-9.78 3.562-.586 7.14-.82 10.727-.633 7.155.375 13.98 1.997 20.027 6.039 5.56 3.717 9.51 8.746 11.89 15.003 1.294 3.4 1.982 6.914 2.281 10.537.535 6.472-.39 12.765-2.359 18.891-1.822 5.671-4.64 10.836-8.531 15.41-3.814 4.482-8.31 8.062-13.603 10.615-4.4 2.123-9.04 3.48-13.918 3.95-1.968.19-3.942.314-5.913.468zm21.382-44.418c-.085-1.142-.097-2.295-.27-3.423-.548-3.59-1.995-6.727-4.797-9.154-4.102-3.552-8.908-4.262-13.978-3.105-5.876 1.34-9.955 5.122-12.785 10.324-1.693 3.11-2.674 6.444-3.02 9.969-.246 2.492-.312 4.977.209 7.445.827 3.922 2.736 7.164 6.134 9.397 2.648 1.741 5.59 2.354 8.76 2.315 2.745-.034 5.314-.634 7.703-1.873 4.167-2.16 7.165-5.514 9.227-9.685 1.895-3.835 2.825-7.913 2.817-12.21zM410.007 76.383c-3.805 2.013-7.627 3.673-11.772 4.376-5.248.89-9.926-.38-13.56-4.378-1.901-2.092-3.479-4.48-5.187-6.746-3.59-4.762-7.162-9.539-10.773-14.284-.231-.304-.735-.548-1.12-.56-1.727-.06-3.458-.005-5.186-.033-.653-.01-.953.18-1.098.875-1.058 5.073-2.118 10.146-3.28 15.196-.525 2.28-1.503 4.412-3.132 6.146-1.463 1.556-3.347 2.47-5.437 2.746-2.85.378-5.732.512-8.576-.086-3.388-.713-5.843-2.89-5.989-6.752a19.146 19.146 0 01.364-4.489c1.383-6.818 2.857-13.617 4.295-20.423 1.444-6.834 2.876-13.67 4.328-20.503 1.137-5.35 2.236-10.707 3.463-16.036.924-4.007 2.936-7.352 6.89-9.01 1.712-.72 3.635-1.239 5.479-1.291 7.156-.204 14.318-.19 21.477-.244 2.176-.017 4.36-.098 6.527.039 4.749.3 9.424 1.064 13.77 3.115 6.006 2.834 9.67 7.496 10.685 14.115 1.01 6.588-.026 12.863-3.095 18.767-2.861 5.505-7.114 9.672-12.61 12.562-.965.508-1.957.975-2.968 1.384-1.164.47-1.308.714-.626 1.728a194.575 194.575 0 003.635 5.226c3.206 4.44 6.435 8.864 9.66 13.29 1.097 1.507 2.207 3.003 3.309 4.505.166.228.32.465.527.765zm-45.434-37.848h1.184c3.369 0 6.74.08 10.105-.03 1.876-.062 3.782-.277 5.604-.715 2.491-.598 4.592-1.937 6.006-4.166 1.905-3.002 2.377-6.301 1.807-9.734-.255-1.534-1.037-2.87-2.311-3.91-1.93-1.574-4.225-1.853-6.55-1.926-2.12-.066-4.244.067-6.366.126-1.52.042-3.038.124-4.558.153-.517.01-.783.19-.89.709-.951 4.622-1.92 9.241-2.88 13.862-.378 1.816-.743 3.633-1.151 5.631zM336.478 1.594c-.912 4.243-1.766 8.212-2.618 12.182-1.213 5.654-2.42 11.31-3.638 16.963-1.376 6.38-2.69 12.776-4.167 19.133-1.306 5.619-3.408 10.927-6.601 15.787-4.844 7.374-11.645 11.863-20.146 13.974-5.048 1.253-10.177 1.41-15.317 1.165-4.275-.204-8.493-.912-12.555-2.353-4.05-1.436-7.66-3.552-10.516-6.809-1.834-2.092-3.168-4.486-4.075-7.12-1.257-3.65-1.752-7.428-1.637-11.254.134-4.416.928-8.753 1.9-13.064 1.368-6.06 2.622-12.143 3.954-18.21.903-4.11 1.752-8.236 2.822-12.303.787-2.993 2.61-5.396 5.382-6.856a15.136 15.136 0 014.45-1.505c2.61-.443 5.26-.416 7.868.224 3.429.84 5.034 3.253 5.236 6.596.189 3.11-.605 6.088-1.236 9.084a5298.67 5298.67 0 01-5.172 24.274c-.677 3.142-1.296 6.267-1.226 9.519.113 5.246 3.745 9.17 9.015 9.42 1.731.083 3.508.114 5.206-.174 3.54-.6 5.898-2.866 7.613-5.914 1.659-2.95 2.355-6.2 3.06-9.452 1.043-4.813 2.085-9.625 3.13-14.437 1.154-5.316 2.256-10.643 3.485-15.94.857-3.69 2.451-7.032 5.263-9.695 2.226-2.11 4.866-3.202 7.931-3.23 2.564-.023 5.128-.005 7.692-.005h4.897z"/></svg>