<svg xmlns="http://www.w3.org/2000/svg" viewBox="0 0 180 68"><path d="M52.9 29.3c-.5-.4-.9-1-.9-1.8 0-1.3 1.1-2.2 2.4-2.2.5 0 1.1.1 1.4.4 1.7 1.3 3.7 2 5.8 2s3.3-.8 3.3-2.1-.8-1.8-4.6-2.9c-4.6-1.2-7.5-2.3-7.5-6.9 0-4 3.3-6.8 8-6.8 2.5 0 5.1.6 7.2 1.9 1.1.7 1.4 2.1.7 3.1-.4.7-1.2 1-2 1-.5 0-.9-.1-1.3-.4-1.4-.8-3-1.3-4.7-1.4-2 0-2.9.9-2.9 1.9 0 1.4.9 2 5 3 4.6 1.2 7.2 2.9 7.2 6.8 0 4.4-3.4 6.9-8.4 6.9-3.2.1-6.2-.7-8.7-2.5zm29.2 2.8c-4.9.3-8.9-3.4-9.2-8.1v-.8c-.3-4.7 3.6-8.7 8.3-9h.4c4.6-.1 8.3 3.5 8.4 7.9v.3c0 1.2-.9 2.2-2.1 2.3H78c.3 2.1 2.2 3.5 4.2 3.4 1.3 0 2.5-.4 3.6-1.2.4-.3.8-.4 1.2-.4 1.1 0 2 .8 2 1.8v.1c0 .5-.3 1-.7 1.4-1.8 1.6-3.9 2.3-6.2 2.3zm3.2-10.4c-.3-2.1-1.6-3.6-3.7-3.6s-3.4 1.4-3.8 3.6h7.5zm16.8 10.4c-4.9.3-8.9-3.4-9.2-8.1v-.8c-.3-4.7 3.6-8.7 8.3-9h.4c4.6-.1 8.3 3.5 8.4 7.9v.3c0 1.2-.9 2.2-2.1 2.3H98c.3 2.1 2.2 3.5 4.2 3.4 1.3 0 2.5-.4 3.6-1.2.4-.3.8-.4 1.2-.4 1.1 0 1.8.8 2 1.8v.1c0 .5-.3 1-.7 1.4-1.8 1.6-4 2.3-6.2 2.3zm3.2-10.4c-.3-2.1-1.6-3.6-3.7-3.6s-3.4 1.4-3.8 3.6h7.5zm8.5 7.6c-.7-.4-.9-1.2-.9-1.8 0-1.3 1.1-2.2 2.4-2.2.5 0 1.1.1 1.4.4 1.7 1.3 3.7 1.9 5.8 1.9 2.1 0 3.3-.8 3.3-2.1s-.8-1.8-4.6-2.9c-4.6-1.2-7.6-2.3-7.6-6.9.1-4 3.4-6.8 8.2-6.8 2.5 0 5.1.6 7.2 1.9 1.1.7 1.4 2.1.8 3.1-.4.7-1.2 1-2 1-.5 0-.9-.1-1.3-.4-1.4-.9-3.2-1.4-4.9-1.6-2 0-2.9.9-2.9 1.9 0 1.4.9 1.9 5 3 4.7 1.3 7.4 2.9 7.4 6.8 0 4.4-3.4 6.9-8.4 6.9-3.2.5-6.4-.4-8.9-2.2zm19.9-2.5c0-3.8 2.9-5.5 7.1-5.5 1.4 0 2.9.3 4.2.6v-.4c0-2-1.3-3.1-3.8-3.1-1.2 0-2.4.1-3.4.5-.3.1-.5.1-.8.1-1.2 0-2-.9-2.1-1.9 0-.8.5-1.6 1.3-2 1.8-.6 3.7-.9 5.5-.9 2.4-.1 4.5.5 6.2 1.9 1.3 1.6 2 3.5 1.8 5.5v7.8c0 1.3-1.1 2.3-2.4 2.3-1.2.1-2.2-.8-2.4-2-1.3 1.4-3.3 2.2-5.3 2.2-3.2.1-5.9-1.7-5.9-5.1zm11.4-1.2v-.9c-1.1-.4-2.1-.6-3.2-.6-2.1 0-3.4.8-3.4 2.3 0 1.3 1.1 2.1 2.8 2.1 2.2.1 3.8-1 3.8-2.9zm11.9 4.2l-4.3-12.1c-.1-.4-.3-.8-.3-1.2 0-1.3 1.1-2.2 2.4-2.2 1.2 0 2.1.8 2.4 2l2.6 8.7 2.8-8.7c.3-1.2 1.3-2 2.5-2h.3c1.2 0 2.2.8 2.5 2l2.8 8.7 2.8-8.7c.3-1 1.2-1.8 2.4-1.8s2.4.9 2.4 2.1v.1c0 .4 0 .7-.1 1L174 29.8c-.3 1.3-1.4 2.2-2.8 2.2h-.1c-1.3 0-2.4-.9-2.6-2.1l-2.8-8.6-2.9 8.6c-.3 1.2-1.3 2.1-2.6 2.1h-.1c-1.7 0-2.9-.9-3.1-2.2zm-94.5 22c.1 1.3-.3 2.7-1.1 3.8-.7.9-1.8 1.4-3 1.4-.7 0-1.4-.1-2-.5-.5-.3-1.1-.8-1.3-1.3l-.1 1.5h-1.2V41.5H55v6.4c.3-.5.8-1 1.3-1.4.7-.4 1.3-.5 2-.5 1.2 0 2.4.5 3 1.6.8 1.2 1.2 2.6 1.1 4v.3h.1zm-1.2-.3c0-1.2-.3-2.3-.8-3.2-.5-.8-1.4-1.3-2.3-1.3-.8 0-1.4.3-2 .8-.5.4-.9.9-1.2 1.6v4.8c.3.5.7 1 1.2 1.4.5.4 1.3.5 2 .5.9 0 1.8-.4 2.4-1.2.5-.9.8-2 .8-3v-.4zm6.9 2.3l.4 1.3 3.3-9h1.3l-4.7 12.2c-.3.6-.7 1.3-1.1 1.8-.5.5-1.2.8-2 .8h-.5c-.1 0-.3 0-.4-.1l.1-1h.8c.5 0 .9-.1 1.2-.5.4-.4.7-.9.9-1.4l.5-1.4-4.2-10.4h1.3c.1 0 3.1 7.8 3.1 7.7zm24 .2c0 1-.1 2.1-.4 3.1-1.3-.4-2.1-1.6-2-2.9v-2.3c0-1-.3-2-.8-2.9-.7-.8-1.6-1.3-2.6-1.2-2 0-2.9 1.3-2.9 3.9 0 .7.1 1.4.4 2.1l.4 2.1c0 1-.5 1.6-1.6 1.6-.4 0-.8-.4-.9-1-.3-1.3-.4-2.6-.5-3.9-.1-2-.3-3.4-.3-4-.1-1 .3-2.1.9-2.9.7.6 1.4.9 2.4.9h2.2c1.8 0 3.6.9 4.5 2.6.9 1.6 1.3 3.4 1.3 5.2.1 0-.1-.4-.1-.4zm15.8 1.3c0 .8-.9 1.4-2.9 1.8-1.3.3-2.5.5-3.8.5-1.2 0-2.4-.1-3.4-.7-1.1-.6-2-1.4-2.6-2.3l-1.1-1c-.5-.5-.7-.9-.7-1.2 0-.4.1-.7.4-.9.3-.3.4-.5.7-.8l.8-1.7c.7-1.3 1.7-2.3 3-3 1.3-.6 2.6-1 4.2-1.2 1.2 0 2.4.4 3.2 1.2.8.8 1.3 2 1.2 3.1 0 1.9-1.2 3.1-3.4 3.8-2 .3-3.8.5-5.8.7.7 1.3 2 2.1 3.4 2.1 1.1-.1 2-.4 2.9-.8.8-.4 1.6-.6 2.5-.8.4 0 .8.1 1.2.3 0 .2.2.5.2.9zm-3-6c0-.6-.3-1.4-.9-1.8-.5-.5-1.2-.8-2-.8-1.2 0-2.4.5-3.3 1.2-1.1.5-1.7 1.6-1.8 2.7 0 1 .9 1.6 2.8 1.6 1.2 0 2.2-.3 3.3-.6 1.2-.6 1.9-1.3 1.9-2.3zm14.7 1.2c0 1.6-.3 3-.8 4.4-.8 1.7-1.8 2.6-3.3 2.6-2.4 0-3.8-1.4-4.7-4.3-.5-2.3-.8-4.7-.9-7l-1.2.3c-.4.1-.8.1-1.2.1-.7 0-.9-.5-.9-1.4v-.3c.8 0 1.6-.1 2.2-.4.8-.3 1.2-1 1.1-1.8 0-.5-.1-.9-.3-1.4s-.3-.9-.3-1.4c0-.9.5-1.4 1.7-1.6.1 1.2.3 2.3.1 3.6-.1.9.1 1.8.7 2.6.5.4 1.1.7 1.7.7l2.5.3 2.6.4v1.3c-.5 0-1.2 0-2.2-.1-.9-.1-1.7-.1-2.2-.1-1.7 0-2.6.7-2.6 1.8 0 1.4.1 3 .7 4.3.5 2 1.3 3 2.5 3 .9 0 1.7-.9 2.4-2.6.7-2.1 1.4-3.2 2.2-3.6 0 .5.1.9.1 1.2 0-.2.1-.6.1-.6zm17.7 4c0 1-.1 2.1-.7 3.1-.9-.5-1.3-.9-1.3-1.3 0-.3 0-.7.1-1.3.1-.5.1-1 .1-1.3 0-1.4-.3-2.9-.8-4.3-.7-1.8-1.6-2.7-2.9-2.7-.9 0-1.7.5-2 1.4-.4.8-.5 1.7-.5 2.6 0 .4.1.9.1 1.3.1.4.1.9.1 1.3 0 .7-.3 1.3-.5 2-.8-.3-1.3-.9-1.4-1.8-.3-2.5-.4-3.8-.5-3.9-.4-1.7-1.1-2.6-2.2-2.6-.7 0-1.2.5-1.6 1.4-.3.6-.4 1.4-.4 2.2 0 1 .1 2 .4 3 .3 1 .4 1.9.4 3 0 .4 0 .8-.1 1.2-1.1-.4-1.8-1.4-1.8-2.6-.1-1.2-.3-2.3-.3-3.5 0-.4 0-1-.1-2s-.1-1.6-.1-2c0-.8.1-1.4.3-2.1.8.3 1.4.3 2.2.4.3 0 .4-.1.7-.1.3-.1.5-.1.8-.1.7 0 1.2.3 1.7.6 0 .1.5.5 1.3 1.3.9-1.4 2.4-2.3 4.1-2.3 1.6 0 2.9 1.3 3.8 3.8.7 1.4 1.1 3.3 1.1 5.3zm10.9-4.2c.1 1.6-.1 3.2-.5 4.8-.4 1.6-1.8 2.6-3.6 2.6s-3.3-1.4-4.3-4.3c-.8-2.1-1.2-4.3-1.2-6.6 0-1.8.5-3 1.7-3.4.3 1.4.3 3 .3 4.4 0 1.3.1 2.6.3 3.9.3 1.3 1.1 2.5 2.1 3.2.5.4 1.1.5 1.6.7 1.3 0 2-1.8 2-5.5 0-.6-.1-1.3-.3-1.9-.1-.7-.3-1.3-.3-2s.3-1.3.7-1.8c.8.8 1.3 1.7 1.4 2.7.2 1.2.2 2.2.1 3.2zm17.5 4.2c0 1-.1 2.1-.7 3.1-.9-.5-1.3-.9-1.3-1.3 0-.3 0-.7.1-1.3.1-.6.1-1 .1-1.3 0-1.4-.3-2.9-.8-4.3-.7-1.8-1.6-2.7-2.9-2.7-.9 0-1.7.5-2 1.4-.4.8-.5 1.7-.5 2.6 0 .4.1.9.1 1.3.1.4.1.9.1 1.3 0 .7-.3 1.3-.5 2-.8-.3-1.3-.9-1.4-1.8-.3-2.5-.4-3.8-.5-3.9-.4-1.7-1.1-2.6-2.2-2.6-.7 0-1.2.5-1.6 1.4-.4.6-.5 1.4-.5 2.2 0 1 .1 2 .4 3 .3 1 .4 1.9.4 3 0 .4 0 .8-.1 1.2-1.1-.4-1.8-1.4-1.8-2.6-.1-1.2-.3-2.5-.3-3.6 0-.4 0-1-.1-2 0-.9-.1-1.6-.1-2 0-.8.1-1.4.3-2.1.8.3 1.4.3 2.2.4.3 0 .4-.1.7-.1.3-.1.5-.1.8-.1.7 0 1.2.3 1.7.6 0 .1.5.5 1.3 1.3.9-1.4 2.4-2.3 4.1-2.3 1.6 0 2.9 1.3 3.8 3.8.8 1.5 1.2 3.4 1.2 5.4zm10.8-.4c0 .9-.4 1.8-1.2 2.5-.8.5-1.8.8-2.8.8-1.2 0-2.4-.3-3.4-.9-1.1-.4-1.8-1.4-1.8-2.6 0-.5.3-.8.9-.8.8.1 1.6.5 2.1 1.2.7.6 1.6 1 2.5 1.2.5 0 .9-.3 1.2-.5.3-.4.4-.8.4-1.3 0-.8-.7-1.3-1.8-1.6-1.2-.3-2.2-.5-3.4-.9-1.2-.7-2-1.8-1.8-3.1 0-1.3.8-2.5 1.8-3.1 1.1-.8 2.4-1.2 3.7-1.2.7-.1 1.4.1 2 .7.4.6.5 1.3.5 2.1v.3c-1.2-.5-2.4-.9-3.7-1-.7 0-1.3.3-1.7.6-.5.4-.7 1-.7 1.7s.7 1.2 1.8 1.6c1.2.3 2.4.7 3.6 1.2 1.1.4 1.8 1.7 1.8 3.1zM23 6C11.4 6 2 15.6 2 27.4c0 3.9 1.1 7.5 2.8 10.7 2 3.5 7 9.8 7 9.8L23 62l11.2-14.1s5.1-6.3 7-9.8c1.7-3.2 2.8-6.8 2.8-10.7C44.1 15.6 34.6 6 23 6zm.2 33.7c-6.1 0-11-5.1-11-11.3s4.9-11.3 11-11.3 11 5.1 11 11.3-4.9 11.3-11 11.3z"/></svg>