<svg xmlns="http://www.w3.org/2000/svg" viewBox="0 0 113.2 23.9"><path fill="#F2F2F2" d="M87.6 15.4c0 5.4-3.5 8.6-7.5 8.6s-7.5-3.2-7.5-8.6c0-5.4 3.5-8.6 7.5-8.6s7.5 3.2 7.5 8.6m-11.7 0c0 2.9 1.9 5.2 4.1 5.2 2.3 0 4.1-2.3 4.1-5.2 0-2.9-1.9-5.2-4.1-5.2-2.2 0-4.1 2.3-4.1 5.2z"/><circle fill="#F2F2F2" cx="56" cy="22.1" r="1.9"/><path fill="#ED0677" d="M3.8 1.9C3.8.9 3 0 1.9 0 .8 0 0 .8 0 1.9v20.2c0 1 .8 1.9 1.9 1.9 1 0 1.9-.9 1.9-1.9v-8c0-2 1.6-3.5 3.5-3.5 2 0 3.5 1.6 3.5 3.5v8c0 1 .8 1.9 1.9 1.9 1.1 0 1.9-.9 1.9-1.9v-8c0-4-3.3-7.3-7.3-7.3-1.3 0-2.5.3-3.5.9V1.9zM30.3 13.8c0-1.8 1.4-3.2 3.2-3.2 1.8 0 3.2 1.4 3.2 3.2v8.3c0 1 .8 1.9 1.9 1.9 1 0 1.9-.9 1.9-1.9v-8.3c0-3.9-3.1-7-7-7-2 0-3.8.8-5.1 2.2-1.3-1.4-3.1-2.2-5.1-2.2-3.9 0-7 3.1-7 7v8.3c0 1 .8 1.9 1.9 1.9 1 0 1.9-.9 1.9-1.9v-8.3c0-1.8 1.4-3.2 3.2-3.2 1.8 0 3.2 1.4 3.2 3.2v8.3c0 1 .9 1.9 1.9 1.9 1 0 1.9-.9 1.9-1.9v-8.3zM55.2 6.9c-1-.4-2.1 0-2.5 1 0 0-2.3 6.3-4 10.2-1.7-3.9-4-10.2-4-10.2-.4-1-1.5-1.4-2.5-1-1 .4-1.4 1.5-1 2.5L47 22.8c.3.7 1 1.1 1.7 1.1.8 0 1.4-.5 1.7-1.1l5.8-13.4c.4-.9-.1-2.1-1-2.5"/><path fill="#ED0677" d="M42.1 6.9c1-.4 2.1 0 2.5 1 0 0 2.3 6.3 4 10.2 1.7-3.9 4-10.2 4-10.2.4-1 1.5-1.4 2.5-1 1 .4 1.4 1.5 1 2.5l-5.8 13.4c-.3.7-1 1.1-1.7 1.1-.8 0-1.4-.5-1.7-1.1L41.1 9.4c-.4-.9.1-2.1 1-2.5"/><path fill="#F2F2F2" d="M103 13.8c0-1.8 1.4-3.2 3.2-3.2 1.8 0 3.2 1.4 3.2 3.2v8.3c0 1 .8 1.9 1.9 1.9 1 0 1.9-.9 1.9-1.9v-8.3c0-3.9-3.1-7-7-7-2 0-3.8.8-5.1 2.2C99.8 7.6 98 6.8 96 6.8c-3.9 0-7 3.1-7 7v8.3c0 1 .8 1.9 1.9 1.9 1 0 1.9-.9 1.9-1.9v-8.3c0-1.8 1.4-3.2 3.2-3.2 1.8 0 3.2 1.4 3.2 3.2v8.3c0 1 .9 1.9 1.9 1.9 1 0 1.9-.9 1.9-1.9v-8.3zM59 15.4c0 5.1 3.2 8.6 7.7 8.6 2.7 0 4.5-1.5 4.5-1.5.4-.3.7-.9.7-1.5 0-1-.8-1.8-1.9-1.8-.4 0-.9.1-1.2.4 0 0-.9.9-2.2.9-2.3 0-4.2-2.3-4.2-5.1s1.8-5.2 4.1-5.2c1.3 0 2.4.9 2.4.9.3.3.7.4 1.2.4 1 0 1.9-.8 1.9-1.8 0-.6-.3-1.1-.7-1.5-.1-.1-1.8-1.5-4.5-1.5-4.7.1-7.8 3.6-7.8 8.7z"/></svg>