<svg xmlns="http://www.w3.org/2000/svg" viewBox="0 0 108.894 31">
<path fill="#ffffff" d="M70.5 10.2c-.2 0-.3.1-.5.3l-.2.2a1.5 1.5 0 01-.8.5c-.3 0-.5-.2-.5-1a6.3 6.3 0 01.4-1.7c1.3-1.4 3.3-3.6 3.3-5.1a.6.6 0 00-.6-.7c-1 0-2.7 3.1-3.4 5.3l-1 1c-.7.7-1.8 1.7-2.7 1.7-.6 0-.7-.5-.8-1 1.4-.1 2.8-1 2.8-2a1.1 1.1 0 00-1.1-1.1A3 3 0 0062.9 9a19.8 19.8 0 01-2 1.9h-.2v-.3l.6-1a2.1 2.1 0 00.2-1 1.1 1.1 0 00-1.2-1.2A4 4 0 0057.8 9a5.3 5.3 0 00.2-1c0-.1 0-.6-.5-.6a.6.6 0 00-.5.3l-1 1.1-.2.2a17.2 17.2 0 01-2 1.7h-.1a.7.7 0 010-.1 10.6 10.6 0 00.5-2.1A1.2 1.2 0 0053 7.2c-.8 0-1.6.5-2.4 1.6a5.2 5.2 0 00.1-1s0-.5-.5-.5c-.4 0-.9.8-1.6 1.5l-.4.5-1.1 1h-.2c-.1 0-.2 0-.2-.2a3.5 3.5 0 01.6-1.9l.3-.3a.4.4 0 000-.3.4.4 0 00-.1-.3.4.4 0 00-.3-.1.4.4 0 00-.3.2 2.4 2.4 0 00-.2.3 1.4 1.4 0 00-1.1-.6A3 3 0 0043 8.7a16 16 0 01-1.2 1.2h-.1a3.8 3.8 0 01-1.3.8 2.2 2.2 0 01.3-.8 3.9 3.9 0 001-2 1 1 0 00-1.2-1.2c-.8 0-1.8.9-2.7 2l.3-1c1.4-1.6 2.6-3.9 2.6-4.5a.6.6 0 00-.6-.6.7.7 0 00-.4 0 15 15 0 00-2.4 4.8A33 33 0 0135.8 9c-.7.7-1.8 2-2.8 2-.6 0-.8-.4-.8-1 0-1.1.8-2.3 1.7-2.3a.4.4 0 01.2 0 .5.5 0 00.9.6.8.8 0 00.1-.5 1 1 0 00-.4-.6 1.2 1.2 0 00-.5-.3 1.3 1.3 0 00-.2 0c-1.6 0-2.6 1.8-2.6 3a1.6 1.6 0 001.7 1.9c1.3 0 2.5-1.3 3.4-2.2l.4-.4a18.1 18.1 0 01-.7 2 .5.5 0 000 .2.4.4 0 00.4.4.5.5 0 00.4-.2c1.3-2.3 2.9-4 3.6-4a.3.3 0 01.3 0 .3.3 0 010 .2c0 1-1.2 2-1.2 3a.7.7 0 00.7.7 4.3 4.3 0 002.2-1.2c0 .6 0 1.3.9 1.3.6 0 1.2-.7 2-1.5a1.1 1.1 0 001 1.1c.6 0 1.4-.7 2-1.2l1-1.1c0 .7-.3 1.6-.5 2.1a.8.8 0 000 .2.4.4 0 00.4.4.4.4 0 00.3-.3C51.3 8.7 52.2 8 53 8c.2 0 .4.2.4.5 0 .8-.6 1.6-.6 2.4a.7.7 0 00.7.8c.8 0 2.3-1.6 2.8-2l.3-.3.5-.6a13.6 13.6 0 01-.6 2 .5.5 0 000 .3.4.4 0 00.3.4.4.4 0 00.4-.2c.7-.9 2.2-3 3.2-3a.4.4 0 01.4.4c0 .5-1 1.5-1 2.5a.7.7 0 00.8.8c.6 0 1.7-1 2.5-1.8a1.6 1.6 0 001.5 1.4c1.2 0 2.4-1.2 3.2-2a3.8 3.8 0 000 .7c0 .8.3 1.7 1.3 1.7a1.8 1.8 0 001.2-.5l.3-.4c.2-.2.4-.3.4-.5a.4.4 0 00-.4-.4zm.9-6.5a7.7 7.7 0 01-1.6 2.6 12.2 12.2 0 011.6-2.6zm-6 3.7a.4.4 0 01.2 0 .4.4 0 01.1.2.6.6 0 010 .4c-.3.7-1.8.9-1.8.9.2-.8.8-1.5 1.5-1.5zm-21.7 3.4s-.2 0-.2-.5a2.5 2.5 0 012-2.4.7.7 0 01.6.5c-.8 1-1.9 2.4-2.4 2.4z"/>
<path fill="#ffffff" d="M70.3 22.6a1.5 1.5 0 00-1 .4l-.8.7-1 .7c.9-1.8 2.1-3.2 2.2-5.3a3.3 3.3 0 00-3.5-3.5 6 6 0 00-4.3 2.2 3.3 3.3 0 00-3-1.9 6.4 6.4 0 00-4.5 2.5c0-1.7-1-2.1-1.9-2.1a2.3 2.3 0 00-1.5.7l-3.6 3.4-.6.7a37.8 37.8 0 01-3.6 3.3l-.5.2c-.1 0-.2 0-.2-.2a6.7 6.7 0 01.2-1.1 61.1 61.1 0 012-5.9 2.1 2.1 0 00.2-.6 1.5 1.5 0 00-1.5-1.5 1.4 1.4 0 00-1.4 1c-1 2.3-6.5 8.8-8 8.8a.6.6 0 01-.4-.1c-.2-.1-.2-.5-.2-.5.1-1.8 2.4-5.5 2.4-7.2a1.6 1.6 0 00-1.8-1.7 1.5 1.5 0 00-1.2.6L28.1 21l-3.8 3.6c0 .1-.2 0-.2 0 .4-3 4.3-8.6 4.3-11.9a3 3 0 00-3-3 5.5 5.5 0 00-3.1 1.2 9.9 9.9 0 00-1.6 1.4 5 5 0 00.1-1.1c0-2-1.1-3.4-3-3.4-1.5 0-3.2 1-4.9 2.5a22.4 22.4 0 00-2.8 3.2 9.9 9.9 0 001.2-3.5c0-1.9-1.5-2.5-3-2.5-3.6 0-6.1 2.5-7.9 4.8a1.7 1.7 0 00-.4 1 1.5 1.5 0 001.6 1.3 1.3 1.3 0 001-.6C4 12.2 6 10.3 8.2 10.3a.3.3 0 01.2.1v.2c-1.7 3.7-6.6 12-6.6 14.5a1.7 1.7 0 001.7 1.7 2.1 2.1 0 001.6-1l.2-.4c1.6-2.6 8.7-13.7 12.1-14.7a1.2 1.2 0 01.3 0c.2 0 .4.1.4.5 0 2.5-4.7 10.3-5.2 11.4a2.1 2.1 0 00-.3.8 1.4 1.4 0 002.6.7l.6-.8c2.4-3.7 6.8-10.1 9.3-10.7a.6.6 0 01.3 0 .3.3 0 01.1 0v.3c0 2.3-4.4 7.3-4.4 12 0 1.4.4 3 2.3 3.2 3 .2 6.8-4.6 7-4.9l.5-.6a8.2 8.2 0 00-.3 2.1 3.2 3.2 0 003.3 3.4c1.7 0 3.7-1.4 5.5-3.5v.3c0 1.6.8 3 2.6 3s4.1-1.8 7-4.7l.6-.6.8-.8.3-.3a18.5 18.5 0 01-2 4.6 1.7 1.7 0 00-.3 1 1.5 1.5 0 001.6 1.4 1.4 1.4 0 001.2-.8c1-1.4 5.5-8.8 7.7-8.8.2 0 .5.1.5.7a9.4 9.4 0 01-1.2 3.7c-.4 1-.8 1.7-1.2 2.3a1.8 1.8 0 00-.2.8 1.6 1.6 0 001.6 1.5 1.5 1.5 0 001.3-.8l1.2-2.4c1.5-2.7 3.7-6 5.3-6.1a.5.5 0 01.6.5c0 1.8-2.4 3.7-2.4 6a2.5 2.5 0 002.6 2.6 6 6 0 003.6-1.8l.8-.6a1.6 1.6 0 00.5-1.2 1.6 1.6 0 00-1.5-1.5z"/>
<path fill="#ffffff" d="M25 12.6a.4.4 0 01.3 0s.2.2.1.5h.3l-.2-.6H25zm80.6 7.4a16.4 16.4 0 01-5.4 6.4 14.3 14.3 0 01-15.5 1c-5.5-3.2-7.5-8.8-7-14.9C78 9.2 79 6 82.1 4.2a13.6 13.6 0 018.8-1.3 1.3 1.3 0 001.1-.4 24.5 24.5 0 0112.7 8.5 8.4 8.4 0 01.9 9m3-6.5c-1-3.8-4.5-6.8-7.6-9A29.2 29.2 0 0090 0a1.3 1.3 0 00-1.5.9C83.3.9 78 3.2 76.2 8.4A17.4 17.4 0 0081 27.3a16.8 16.8 0 0017.8 2c5.5-2.5 11.7-9.3 9.9-15.8"/>
<path fill="#ffffff" d="M97.1 21.4c-2.6 1.9-5.6 3.2-8.8 1.9a10.8 10.8 0 01-3.3-2.5c-.8-.9-2.5.6-1.7 1.5a11.3 11.3 0 004.5 3.2c4 1.2 7.4-.3 10.4-2.6 1.2-.8.2-2.4-1-1.5m3.5-6.7a.9.9 0 00-.6.3l-.6.6-2.2 1.9a.1.1 0 01-.2 0c.3-1.9 2.7-5.5 2.7-7.5a1.9 1.9 0 00-2-2 3.5 3.5 0 00-1.9.8 6.3 6.3 0 00-1 .9A3.2 3.2 0 0095 9a2 2 0 00-2-2.2 5.1 5.1 0 00-3 1.6 14.4 14.4 0 00-1.8 2 6.3 6.3 0 00.8-2.2c0-1.2-1-1.6-2-1.6-2.3 0-3.9 1.6-5 3a1.1 1.1 0 00-.3.6 1 1 0 001 1 .9.9 0 00.7-.4c.8-1.2 2-2.4 3.5-2.4a.2.2 0 01.1 0v.2c-1 2.4-4.2 7.6-4.2 9.2a1 1 0 001 1 1.3 1.3 0 001-.6l.2-.2c1-1.6 5.6-8.7 7.8-9.3a.8.8 0 01.2 0c.1 0 .2 0 .2.3 0 1.5-3 6.5-3.3 7.2a1.4 1.4 0 00-.2.5.9.9 0 001.7.5c0-.2.2-.3.3-.5 1.6-2.4 4.4-6.5 6-6.9a.3.3 0 01.1 0 .1.1 0 01.1 0 .3.3 0 010 .2c0 1.5-2.8 4.7-2.8 7.7 0 .9.3 2 1.5 2a1.1 1.1 0 00.3 0c1.4 0 3.2-2 4.1-3l.4-.4a1 1 0 00.2-.6 1 1 0 00-.9-1"/></svg>